<?xml version="1.0" encoding="utf-8"?>
<!-- Generator: Adobe Illustrator 16.0.0, SVG Export Plug-In . SVG Version: 6.00 Build 0)  -->
<!DOCTYPE svg PUBLIC "-//W3C//DTD SVG 1.1//EN" "http://www.w3.org/Graphics/SVG/1.1/DTD/svg11.dtd">
<svg version="1.1" id="Lager_1" xmlns="http://www.w3.org/2000/svg" xmlns:xlink="http://www.w3.org/1999/xlink" x="0px" y="0px"
	 width="1240px" height="2000px" viewBox="0 0 1240 2000" enable-background="new 0 0 1240 2000" xml:space="preserve">
<rect x="-19" y="-25" fill="#71BB76" stroke="#000000" stroke-miterlimit="10" width="1280" height="2046"/>
<g>
	<polygon fill="#70C1A9" stroke="#000000" stroke-width="3" stroke-miterlimit="10" points="-171,571 -1119,571 -1119,571.667 
		-1047.41,613 -1119,654.333 -1119,655 -171,655 -98.254,613 	"/>
	<polygon opacity="0.4" fill="#FFFFFF" points="-131.646,607 -190.384,580 -1083.412,580 -1083.412,580.5 -1025.762,607 	"/>
</g>
<g opacity="0.2">
	<g>
		<polygon fill="#B25B5B" stroke="#000000" stroke-width="3" stroke-miterlimit="10" points="1228.498,301.501 325.803,591.064 
			326.007,591.7 406.801,609.191 351.257,670.416 351.46,671.051 1254.154,381.487 1310.596,319.274 		"/>
		<polygon opacity="0.4" fill="#FFFFFF" points="1276.967,323.76 1212.787,315.992 362.44,588.765 362.592,589.24 425.582,596.865 
					"/>
	</g>
	<g>
		<polygon fill="#AE4546" stroke="#000000" stroke-width="3" stroke-miterlimit="10" points="1670.42,243.263 767.727,532.826 
			767.93,533.461 848.725,550.952 793.18,612.178 793.384,612.812 1696.078,323.248 1752.518,261.035 		"/>
		<polygon opacity="0.4" fill="#FFFFFF" points="1718.889,265.521 1654.711,257.753 804.363,530.526 804.516,531.002 
			867.505,538.626 		"/>
	</g>
	<g>
		<polygon fill="#883839" stroke="#000000" stroke-width="3" stroke-miterlimit="10" points="1178.025,755.264 275.331,1044.826 
			275.535,1045.461 356.329,1062.953 300.785,1124.178 300.988,1124.812 1203.684,835.248 1260.123,773.035 		"/>
		<polygon opacity="0.4" fill="#FFFFFF" points="1226.494,777.521 1162.316,769.754 311.968,1042.525 312.12,1043.002 
			375.109,1050.627 		"/>
	</g>
	<g>
		<polygon fill="#601D1E" stroke="#000000" stroke-width="3" stroke-miterlimit="10" points="1090.025,865.852 187.331,1155.414 
			187.535,1156.051 268.329,1173.541 212.785,1234.766 212.988,1235.4 1115.684,945.836 1172.123,883.623 		"/>
		<polygon opacity="0.4" fill="#FFFFFF" points="1138.494,888.109 1074.316,880.342 223.968,1153.115 224.12,1153.59 
			287.109,1161.215 		"/>
	</g>
	<g>
		<polygon fill="#441B1B" stroke="#000000" stroke-width="3" stroke-miterlimit="10" points="1936.025,1109.852 1033.331,1399.414 
			1033.535,1400.051 1114.328,1417.541 1058.785,1478.766 1058.988,1479.4 1961.684,1189.836 2018.123,1127.623 		"/>
		<polygon opacity="0.4" fill="#FFFFFF" points="1984.494,1132.109 1920.316,1124.342 1069.968,1397.115 1070.12,1397.59 
			1133.109,1405.215 		"/>
	</g>
	<g>
		<polygon fill="#210F10" stroke="#000000" stroke-width="3" stroke-miterlimit="10" points="1878.025,1405.215 975.331,1694.777 
			975.535,1695.414 1056.328,1712.904 1000.785,1774.129 1000.988,1774.764 1903.684,1485.199 1960.123,1422.986 		"/>
		<polygon opacity="0.4" fill="#FFFFFF" points="1926.494,1427.473 1862.316,1419.705 1011.968,1692.479 1012.12,1692.953 
			1075.109,1700.578 		"/>
	</g>
	<g>
		<polygon fill="#8F3939" stroke="#000000" stroke-width="3" stroke-miterlimit="10" points="2352.42,523.227 1449.727,812.789 
			1449.93,813.426 1530.725,830.916 1475.18,892.141 1475.383,892.775 2378.078,603.211 2434.518,540.999 		"/>
		<polygon opacity="0.4" fill="#FFFFFF" points="2400.889,545.485 2336.711,537.717 1486.363,810.49 1486.516,810.965 
			1549.504,818.59 		"/>
	</g>
	<g>
		<polygon fill="#C16865" stroke="#000000" stroke-width="3" stroke-miterlimit="10" points="544.42,428.038 -358.273,717.6 
			-358.07,718.236 -277.276,735.727 -332.82,796.951 -332.617,797.586 570.079,508.022 626.518,445.809 		"/>
		<polygon opacity="0.4" fill="#FFFFFF" points="592.89,450.295 528.711,442.528 -321.636,715.301 -321.484,715.775 -258.496,723.4 
					"/>
	</g>
	<g>
		<polygon fill="#C16865" stroke="#000000" stroke-width="3" stroke-miterlimit="10" points="2516.42,-291.999 1613.727,-2.436 
			1613.93,-1.8 1694.725,15.691 1639.18,76.916 1639.383,77.55 2542.078,-212.014 2598.518,-274.227 		"/>
		<polygon opacity="0.4" fill="#FFFFFF" points="2564.889,-269.741 2500.711,-277.508 1650.363,-4.736 1650.516,-4.26 
			1713.504,3.365 		"/>
	</g>
	<g>
		<polygon fill="#C16865" stroke="#000000" stroke-width="3" stroke-miterlimit="10" points="1590.42,-366.184 687.727,-76.622 
			687.93,-75.986 768.725,-58.495 713.18,2.73 713.383,3.365 1616.078,-286.2 1672.518,-348.413 		"/>
		<polygon opacity="0.4" fill="#FFFFFF" points="1638.889,-343.926 1574.711,-351.694 724.363,-78.921 724.516,-78.446 
			787.504,-70.821 		"/>
	</g>
</g>
<g opacity="0.2">
	<g>
		<polygon fill="#B25B5B" stroke="#000000" stroke-width="3" stroke-miterlimit="10" points="-129.395,597.212 -1032.089,886.774 
			-1031.886,887.411 -951.092,904.901 -1006.636,966.126 -1006.432,966.761 -103.738,677.197 -47.297,614.984 		"/>
		<polygon opacity="0.4" fill="#FFFFFF" points="-80.926,619.471 -145.105,611.702 -995.453,884.476 -995.3,884.95 
			-932.311,892.575 		"/>
	</g>
	<g>
		<polygon fill="#AE4546" stroke="#000000" stroke-width="3" stroke-miterlimit="10" points="312.527,538.974 -590.166,828.536 
			-589.963,829.172 -509.168,846.663 -564.713,907.888 -564.509,908.522 338.186,618.958 394.625,556.745 		"/>
		<polygon opacity="0.4" fill="#FFFFFF" points="360.997,561.231 296.818,553.464 -553.529,826.236 -553.377,826.712 
			-490.388,834.337 		"/>
	</g>
	<g>
		<polygon fill="#883839" stroke="#000000" stroke-width="3" stroke-miterlimit="10" points="-179.867,1050.974 -1082.562,1340.536 
			-1082.358,1341.171 -1001.564,1358.663 -1057.108,1419.888 -1056.904,1420.522 -154.209,1130.958 -97.77,1068.745 		"/>
		<polygon opacity="0.4" fill="#FFFFFF" points="-131.398,1073.231 -195.576,1065.464 -1045.925,1338.235 -1045.772,1338.712 
			-982.783,1346.337 		"/>
	</g>
	<g>
		<polygon fill="#601D1E" stroke="#000000" stroke-width="3" stroke-miterlimit="10" points="-267.867,1161.562 -1170.562,1451.124 
			-1170.358,1451.761 -1089.564,1469.251 -1145.108,1530.476 -1144.904,1531.11 -242.209,1241.546 -185.77,1179.333 		"/>
		<polygon opacity="0.4" fill="#FFFFFF" points="-219.398,1183.819 -283.576,1176.052 -1133.925,1448.825 -1133.772,1449.3 
			-1070.783,1456.925 		"/>
	</g>
	<g>
		<polygon fill="#441B1B" stroke="#000000" stroke-width="3" stroke-miterlimit="10" points="578.133,1405.562 -324.562,1695.124 
			-324.357,1695.761 -243.564,1713.251 -299.107,1774.476 -298.904,1775.11 603.792,1485.546 660.23,1423.333 		"/>
		<polygon opacity="0.4" fill="#FFFFFF" points="626.602,1427.819 562.424,1420.052 -287.925,1692.825 -287.772,1693.3 
			-224.783,1700.925 		"/>
	</g>
	<g>
		<polygon fill="#210F10" stroke="#000000" stroke-width="3" stroke-miterlimit="10" points="520.133,1700.925 -382.562,1990.487 
			-382.357,1991.124 -301.564,2008.614 -357.107,2069.839 -356.904,2070.474 545.792,1780.909 602.231,1718.696 		"/>
		<polygon opacity="0.4" fill="#FFFFFF" points="568.602,1723.183 504.424,1715.415 -345.925,1988.188 -345.772,1988.663 
			-282.783,1996.288 		"/>
	</g>
	<g>
		<polygon fill="#8F3939" stroke="#000000" stroke-width="3" stroke-miterlimit="10" points="994.527,818.938 91.834,1108.499 
			92.037,1109.136 172.832,1126.626 117.287,1187.851 117.49,1188.485 1020.186,898.921 1076.625,836.709 		"/>
		<polygon opacity="0.4" fill="#FFFFFF" points="1042.996,841.195 978.818,833.428 128.471,1106.2 128.623,1106.675 191.611,1114.3 
					"/>
	</g>
	<g>
		<polygon fill="#C16865" stroke="#000000" stroke-width="3" stroke-miterlimit="10" points="-813.472,723.748 -1716.166,1013.31 
			-1715.962,1013.946 -1635.168,1031.437 -1690.712,1092.661 -1690.509,1093.296 -787.814,803.732 -731.375,741.52 		"/>
		<polygon opacity="0.4" fill="#FFFFFF" points="-765.003,746.006 -829.181,738.238 -1679.529,1011.011 -1679.376,1011.485 
			-1616.388,1019.11 		"/>
	</g>
	<g>
		<polygon fill="#C16865" stroke="#000000" stroke-width="3" stroke-miterlimit="10" points="1158.527,3.712 255.834,293.274 
			256.037,293.91 336.833,311.401 281.287,372.626 281.49,373.261 1184.186,83.696 1240.625,21.483 		"/>
		<polygon opacity="0.4" fill="#FFFFFF" points="1206.996,25.97 1142.818,18.202 292.471,290.975 292.623,291.45 355.612,299.075 		
			"/>
	</g>
	<g>
		<polygon fill="#C16865" stroke="#000000" stroke-width="3" stroke-miterlimit="10" points="232.527,-70.474 -670.166,219.089 
			-669.963,219.725 -589.168,237.216 -644.713,298.44 -644.51,299.075 258.186,9.511 314.625,-52.702 		"/>
		<polygon opacity="0.4" fill="#FFFFFF" points="280.996,-48.216 216.818,-55.983 -633.529,216.789 -633.377,217.265 
			-570.389,224.89 		"/>
	</g>
</g>
<g opacity="0.6">
	<g>
		<polygon fill="#B25B5B" stroke="#000000" stroke-width="3" stroke-miterlimit="10" points="1250.653,728.926 347.958,1018.489 
			348.162,1019.125 428.956,1036.616 373.412,1097.841 373.616,1098.476 1276.31,808.912 1332.751,746.699 		"/>
		<polygon opacity="0.4" fill="#FFFFFF" points="1299.122,751.185 1234.942,743.417 384.595,1016.189 384.748,1016.665 
			447.737,1024.29 		"/>
	</g>
	<g>
		<polygon fill="#AE4546" stroke="#000000" stroke-width="3" stroke-miterlimit="10" points="1692.575,670.688 789.882,960.251 
			790.085,960.886 870.88,978.377 815.335,1039.603 815.539,1040.237 1718.233,750.673 1774.673,688.46 		"/>
		<polygon opacity="0.4" fill="#FFFFFF" points="1741.044,692.946 1676.866,685.178 826.519,957.951 826.671,958.427 
			889.66,966.051 		"/>
	</g>
	<g>
		<polygon fill="#883839" stroke="#000000" stroke-width="3" stroke-miterlimit="10" points="1200.181,1182.688 297.486,1472.251 
			297.69,1472.886 378.484,1490.378 322.94,1551.603 323.144,1552.237 1225.839,1262.673 1282.278,1200.46 		"/>
		<polygon opacity="0.4" fill="#FFFFFF" points="1248.649,1204.946 1184.472,1197.179 334.123,1469.95 334.275,1470.427 
			397.265,1478.052 		"/>
	</g>
	<g>
		<polygon fill="#601D1E" stroke="#000000" stroke-width="3" stroke-miterlimit="10" points="1112.181,1293.276 209.486,1582.839 
			209.69,1583.476 290.484,1600.966 234.94,1662.19 235.144,1662.825 1137.839,1373.261 1194.278,1311.048 		"/>
		<polygon opacity="0.4" fill="#FFFFFF" points="1160.649,1315.534 1096.472,1307.767 246.123,1580.54 246.275,1581.015 
			309.265,1588.64 		"/>
	</g>
	<g>
		<polygon fill="#441B1B" stroke="#000000" stroke-width="3" stroke-miterlimit="10" points="1958.181,1537.276 1055.486,1826.839 
			1055.69,1827.476 1136.483,1844.966 1080.94,1906.19 1081.144,1906.825 1983.839,1617.261 2040.278,1555.048 		"/>
		<polygon opacity="0.4" fill="#FFFFFF" points="2006.649,1559.534 1942.472,1551.767 1092.123,1824.54 1092.275,1825.015 
			1155.265,1832.64 		"/>
	</g>
	<g>
		<polygon fill="#210F10" stroke="#000000" stroke-width="3" stroke-miterlimit="10" points="1900.181,1832.64 997.486,2122.202 
			997.69,2122.839 1078.483,2140.329 1022.94,2201.554 1023.144,2202.188 1925.839,1912.624 1982.278,1850.411 		"/>
		<polygon opacity="0.4" fill="#FFFFFF" points="1948.649,1854.897 1884.472,1847.13 1034.123,2119.903 1034.275,2120.378 
			1097.265,2128.003 		"/>
	</g>
	<g>
		<polygon fill="#8F3939" stroke="#000000" stroke-width="3" stroke-miterlimit="10" points="2374.575,950.652 1471.882,1240.214 
			1472.085,1240.851 1552.88,1258.341 1497.335,1319.565 1497.538,1320.2 2400.233,1030.636 2456.673,968.423 		"/>
		<polygon opacity="0.4" fill="#FFFFFF" points="2423.044,972.91 2358.866,965.142 1508.519,1237.915 1508.671,1238.39 
			1571.659,1246.015 		"/>
	</g>
	<g>
		<polygon fill="#C16865" stroke="#000000" stroke-width="3" stroke-miterlimit="10" points="566.576,855.462 -336.118,1145.024 
			-335.915,1145.661 -255.121,1163.151 -310.665,1224.376 -310.461,1225.011 592.234,935.447 648.673,873.234 		"/>
		<polygon opacity="0.4" fill="#FFFFFF" points="615.045,877.72 550.867,869.953 -299.481,1142.726 -299.329,1143.2 
			-236.34,1150.825 		"/>
	</g>
	<g>
		<polygon fill="#C16865" stroke="#000000" stroke-width="3" stroke-miterlimit="10" points="2538.575,135.426 1635.882,424.989 
			1636.085,425.625 1716.88,443.116 1661.335,504.34 1661.538,504.975 2564.233,215.411 2620.673,153.198 		"/>
		<polygon opacity="0.4" fill="#FFFFFF" points="2587.044,157.684 2522.866,149.917 1672.519,422.689 1672.671,423.165 
			1735.659,430.79 		"/>
	</g>
	<g>
		<polygon fill="#C16865" stroke="#000000" stroke-width="3" stroke-miterlimit="10" points="1612.575,61.241 709.882,350.803 
			710.085,351.439 790.88,368.93 735.335,430.155 735.538,430.79 1638.233,141.225 1694.673,79.012 		"/>
		<polygon opacity="0.4" fill="#FFFFFF" points="1661.044,83.499 1596.866,75.731 746.519,348.503 746.671,348.979 809.659,356.604 
					"/>
	</g>
</g>
<g>
	<g>
		<polygon fill="#B25B5B" stroke="#000000" stroke-width="3" stroke-miterlimit="10" points="698.257,593.5 -204.438,883.063 
			-204.234,883.699 -123.44,901.189 -178.984,962.414 -178.78,963.049 723.914,673.485 780.354,611.272 		"/>
		<polygon opacity="0.4" fill="#FFFFFF" points="746.726,615.759 682.547,607.991 -167.801,880.763 -167.648,881.239 
			-104.659,888.864 		"/>
	</g>
	<g>
		<polygon fill="#AE4546" stroke="#000000" stroke-width="3" stroke-miterlimit="10" points="1140.18,535.261 237.486,824.825 
			237.689,825.46 318.483,842.951 262.939,904.175 263.143,904.811 1165.838,615.247 1222.277,553.034 		"/>
		<polygon opacity="0.4" fill="#FFFFFF" points="1188.648,557.52 1124.471,549.752 274.123,822.524 274.275,823 337.264,830.625 		
			"/>
	</g>
	<g>
		<polygon fill="#883839" stroke="#000000" stroke-width="3" stroke-miterlimit="10" points="647.784,1047.262 -254.91,1336.824 
			-254.706,1337.46 -173.912,1354.951 -229.456,1416.176 -229.252,1416.811 673.442,1127.246 729.882,1065.033 		"/>
		<polygon opacity="0.4" fill="#FFFFFF" points="696.253,1069.52 632.075,1061.752 -218.273,1334.524 -218.121,1335 
			-155.131,1342.625 		"/>
	</g>
	<g>
		<polygon fill="#601D1E" stroke="#000000" stroke-width="3" stroke-miterlimit="10" points="559.784,1157.851 -342.91,1447.413 
			-342.706,1448.049 -261.912,1465.54 -317.456,1526.765 -317.252,1527.399 585.442,1237.835 641.882,1175.622 		"/>
		<polygon opacity="0.4" fill="#FFFFFF" points="608.253,1180.108 544.075,1172.341 -306.273,1445.113 -306.121,1445.589 
			-243.131,1453.214 		"/>
	</g>
	<g>
		<polygon fill="#441B1B" stroke="#000000" stroke-width="3" stroke-miterlimit="10" points="1405.784,1401.851 503.09,1691.413 
			503.294,1692.049 584.088,1709.54 528.544,1770.765 528.748,1771.399 1431.442,1481.835 1487.882,1419.622 		"/>
		<polygon opacity="0.4" fill="#FFFFFF" points="1454.253,1424.108 1390.075,1416.341 539.727,1689.113 539.879,1689.589 
			602.869,1697.214 		"/>
	</g>
	<g>
		<polygon fill="#210F10" stroke="#000000" stroke-width="3" stroke-miterlimit="10" points="1347.784,1697.214 445.09,1986.776 
			445.294,1987.412 526.088,2004.903 470.544,2066.128 470.748,2066.763 1373.442,1777.198 1429.882,1714.985 		"/>
		<polygon opacity="0.4" fill="#FFFFFF" points="1396.253,1719.472 1332.075,1711.704 481.727,1984.477 481.879,1984.952 
			544.869,1992.577 		"/>
	</g>
	<g>
		<polygon fill="#8F3939" stroke="#000000" stroke-width="3" stroke-miterlimit="10" points="1822.18,815.226 919.486,1104.788 
			919.689,1105.424 1000.483,1122.915 944.939,1184.14 945.143,1184.774 1847.838,895.21 1904.277,832.997 		"/>
		<polygon opacity="0.4" fill="#FFFFFF" points="1870.648,837.483 1806.471,829.716 956.123,1102.488 956.275,1102.964 
			1019.264,1110.589 		"/>
	</g>
	<g>
		<polygon fill="#C16865" stroke="#000000" stroke-width="3" stroke-miterlimit="10" points="14.18,720.036 -888.514,1009.599 
			-888.311,1010.234 -807.517,1027.726 -863.061,1088.95 -862.857,1089.585 39.838,800.021 96.277,737.808 		"/>
		<polygon opacity="0.4" fill="#FFFFFF" points="62.648,742.294 -1.529,734.526 -851.877,1007.299 -851.725,1007.774 
			-788.736,1015.399 		"/>
	</g>
	<g>
		<polygon fill="#C16865" stroke="#000000" stroke-width="3" stroke-miterlimit="10" points="1986.18,0 1083.486,289.562 
			1083.689,290.198 1164.483,307.689 1108.939,368.914 1109.143,369.549 2011.838,79.984 2068.277,17.771 		"/>
		<polygon opacity="0.4" fill="#FFFFFF" points="2034.648,22.258 1970.471,14.49 1120.123,287.263 1120.275,287.738 
			1183.264,295.363 		"/>
	</g>
	<g>
		<polygon fill="#C16865" stroke="#000000" stroke-width="3" stroke-miterlimit="10" points="1060.18,-74.186 157.486,215.377 
			157.689,216.013 238.483,233.504 182.939,294.729 183.143,295.363 1085.838,5.799 1142.277,-56.414 		"/>
		<polygon opacity="0.4" fill="#FFFFFF" points="1108.648,-51.928 1044.471,-59.695 194.123,213.077 194.275,213.553 
			257.264,221.178 		"/>
	</g>
</g>
<rect opacity="0.8" fill="#FFFFFF" stroke="#C7C6C2" stroke-width="8" stroke-miterlimit="10" width="1240" height="161.633"/>
</svg>
